<svg width="680" viewBox="0 0 680 450" xmlns="http://www.w3.org/2000/svg" font-family="sans-serif">
<defs>
  <marker id="arrow" viewBox="0 0 10 10" refX="8" refY="5" markerWidth="6" markerHeight="6" orient="auto-start-reverse">
    <path d="M2 1L8 5L2 9" fill="none" stroke="#888" stroke-width="1.5" stroke-linecap="round" stroke-linejoin="round"/>
  </marker>
</defs>

<!-- Arrows -->
<path d="M215,88 L215,104 L95,104 L95,136" fill="none" stroke="#888" stroke-width="1" marker-end="url(#arrow)"/>
<path d="M258,88 L258,112 L217,112 L217,136" fill="none" stroke="#888" stroke-width="1" marker-end="url(#arrow)"/>
<line x1="339" y1="88" x2="339" y2="136" stroke="#888" stroke-width="1" marker-end="url(#arrow)"/>
<path d="M400,88 L400,112 L461,112 L461,136" fill="none" stroke="#888" stroke-width="1" marker-end="url(#arrow)"/>
<path d="M325,236 L325,212 L339,212 L339,188" fill="none" stroke="#888" stroke-width="1" marker-end="url(#arrow)"/>
<path d="M571,236 L571,212 L583,212 L583,188" fill="none" stroke="#888" stroke-width="1" marker-end="url(#arrow)"/>

<!-- mdeditorkit -->
<rect x="170" y="40" width="280" height="44" rx="8" fill="#EEEDFE" stroke="#534AB7" stroke-width="0.5"/>
<text x="310" y="62" text-anchor="middle" dominant-baseline="central" font-size="14" font-weight="500" fill="#3C3489">mdeditorkit</text>

<!-- Core row -->
<rect x="40"  y="140" width="110" height="44" rx="8" fill="#E1F5EE" stroke="#0F6E56" stroke-width="0.5"/>
<text x="95"  y="162" text-anchor="middle" dominant-baseline="central" font-size="14" font-weight="500" fill="#085041">mdparser</text>
<rect x="162" y="140" width="110" height="44" rx="8" fill="#E1F5EE" stroke="#0F6E56" stroke-width="0.5"/>
<text x="217" y="162" text-anchor="middle" dominant-baseline="central" font-size="14" font-weight="500" fill="#085041">mdmodel</text>
<rect x="284" y="140" width="110" height="44" rx="8" fill="#E1F5EE" stroke="#0F6E56" stroke-width="0.5"/>
<text x="339" y="162" text-anchor="middle" dominant-baseline="central" font-size="14" font-weight="500" fill="#085041">mdtext</text>
<rect x="406" y="140" width="110" height="44" rx="8" fill="#E1F5EE" stroke="#0F6E56" stroke-width="0.5"/>
<text x="461" y="162" text-anchor="middle" dominant-baseline="central" font-size="14" font-weight="500" fill="#085041">mdviewer</text>
<rect x="528" y="140" width="110" height="44" rx="8" fill="#E1F5EE" stroke="#0F6E56" stroke-width="0.5"/>
<text x="583" y="162" text-anchor="middle" dominant-baseline="central" font-size="14" font-weight="500" fill="#085041">mdstack</text>

<!-- Second level -->
<rect x="270" y="240" width="110" height="44" rx="8" fill="#E6F1FB" stroke="#185FA5" stroke-width="0.5"/>
<text x="325" y="262" text-anchor="middle" dominant-baseline="central" font-size="14" font-weight="500" fill="#0C447C">mdoutline</text>
<rect x="494" y="240" width="154" height="44" rx="8" fill="#E6F1FB" stroke="#185FA5" stroke-width="0.5"/>
<text x="571" y="262" text-anchor="middle" dominant-baseline="central" font-size="14" font-weight="500" fill="#0C447C">mdstacknoteskit</text>

<!-- Standalone container -->
<rect x="40" y="336" width="600" height="90" rx="8" fill="none" stroke="#bbb" stroke-width="0.5" stroke-dasharray="4 3"/>
<text x="52" y="352" font-size="11" fill="#999">standalone</text>

<!-- Row 1 -->
<rect x="52"  y="358" width="120" height="28" rx="4" fill="#F1EFE8" stroke="#888780" stroke-width="0.5"/>
<text x="112" y="372" text-anchor="middle" dominant-baseline="central" font-size="12" fill="#444441">mdtheme</text>
<rect x="184" y="358" width="120" height="28" rx="4" fill="#F1EFE8" stroke="#888780" stroke-width="0.5"/>
<text x="244" y="372" text-anchor="middle" dominant-baseline="central" font-size="12" fill="#444441">mdvalidator</text>
<rect x="316" y="358" width="110" height="28" rx="4" fill="#F1EFE8" stroke="#888780" stroke-width="0.5"/>
<text x="371" y="372" text-anchor="middle" dominant-baseline="central" font-size="12" fill="#444441">mdsearch</text>
<rect x="438" y="358" width="90"  height="28" rx="4" fill="#F1EFE8" stroke="#888780" stroke-width="0.5"/>
<text x="483" y="372" text-anchor="middle" dominant-baseline="central" font-size="12" fill="#444441">mdhtml</text>
<rect x="540" y="358" width="88"  height="28" rx="4" fill="#F1EFE8" stroke="#888780" stroke-width="0.5"/>
<text x="584" y="372" text-anchor="middle" dominant-baseline="central" font-size="12" fill="#444441">mdpdf</text>

<!-- Row 2 -->
<rect x="52"  y="394" width="148" height="28" rx="4" fill="#F1EFE8" stroke="#888780" stroke-width="0.5"/>
<text x="126" y="408" text-anchor="middle" dominant-baseline="central" font-size="12" fill="#444441">mdcontextmenu</text>
<rect x="212" y="394" width="140" height="28" rx="4" fill="#F1EFE8" stroke="#888780" stroke-width="0.5"/>
<text x="282" y="408" text-anchor="middle" dominant-baseline="central" font-size="12" fill="#444441">uicontextmenu</text>
<rect x="364" y="394" width="100" height="28" rx="4" fill="#F1EFE8" stroke="#888780" stroke-width="0.5"/>
<text x="414" y="408" text-anchor="middle" dominant-baseline="central" font-size="12" fill="#444441">docir-md</text>
<rect x="476" y="394" width="152" height="28" rx="4" fill="#F1EFE8" stroke="#888780" stroke-width="0.5"/>
<text x="552" y="408" text-anchor="middle" dominant-baseline="central" font-size="12" fill="#444441">mdstacknoteskit</text>

<!-- Legend -->
<line x1="562" y1="58" x2="596" y2="58" stroke="#888" stroke-width="1" marker-end="url(#arrow)"/>
<text x="604" y="62" font-size="11" dominant-baseline="central" fill="#888">depends on</text>
</svg>
